<svg width="50" height="50" viewBox="0 0 50 50" fill="none" xmlns="http://www.w3.org/2000/svg">
<g id="Group 7999">
<path id="Vector" d="M44.9917 15C44.9917 12.3478 43.9367 9.8043 42.0588 7.92896C40.1809 6.05361 37.634 5 34.9783 5C32.3224 5 29.7756 6.05352 27.8977 7.92896C26.0198 9.80439 24.9648 12.3478 24.9648 15C24.9648 17.6522 26.0197 20.1957 27.8977 22.0711C29.7757 23.9465 32.3224 25.0001 34.9783 25.0001C37.6333 24.9971 40.1783 23.9427 42.0558 22.0681C43.933 20.1931 44.9887 17.6515 44.9917 15ZM29.6683 19.125L28.5217 20.27C27.4816 19.0055 26.8393 17.4617 26.6765 15.8332H28.303V14.1666H26.6765C26.8393 12.5382 27.4815 10.9943 28.5217 9.72982L29.6683 10.8749L30.8481 9.69668L29.7014 8.55162C30.9677 7.51257 32.5136 6.87153 34.1442 6.70896V8.33325H35.8131V6.70896C37.4436 6.87153 38.9896 7.51253 40.2558 8.55162L39.1092 9.69668L40.289 10.8749L41.4356 9.72982C42.4757 10.9943 43.118 12.5382 43.2807 14.1666H41.6542V15.8332H43.2807C43.118 17.4617 42.4757 19.0055 41.4356 20.27L40.289 19.125L39.1092 20.3032L40.2558 21.4482C38.9896 22.4873 37.4436 23.1283 35.8131 23.2909V21.6667H34.1442V23.2909C32.5136 23.1283 30.9677 22.4873 29.7014 21.4482L30.8481 20.3032L29.6683 19.125Z" fill="#C0C0C0"/>
<path id="Vector_2" d="M34.9809 17.5C35.7736 17.5016 36.5202 17.1269 36.9921 16.4907C37.4641 15.8545 37.6057 15.0324 37.3736 14.2752C37.1415 13.5181 36.563 12.9161 35.8153 12.6532V10H34.1464V12.6532C33.4397 12.9055 32.8836 13.4609 32.631 14.1667H30.8086V15.8333H32.631C32.8031 16.3193 33.1212 16.74 33.5417 17.0383C33.9623 17.3367 34.4649 17.4977 34.9809 17.5ZM34.9809 14.1667C35.3184 14.1667 35.6228 14.3698 35.7516 14.6811C35.8809 14.9926 35.8097 15.3508 35.5709 15.5893C35.3321 15.8278 34.9734 15.8989 34.6616 15.7697C34.3498 15.641 34.1464 15.3371 34.1464 15C34.1464 14.5398 34.5201 14.1667 34.9809 14.1667Z" fill="#C0C0C0"/>
<path id="Vector_3" d="M31.086 33.8885C30.9091 34.0462 30.8078 34.272 30.8074 34.509V48.3338H14.1183V40.8338C14.1183 40.6129 14.0304 40.4008 13.874 40.2445C13.7175 40.0883 13.5052 40.0005 13.2838 40.0005H8.27719C7.61335 40.0005 6.9763 39.737 6.507 39.2683C6.03771 38.7995 5.77387 38.1634 5.77387 37.5005V31.6671C5.77387 31.4462 5.68596 31.2341 5.5295 31.0779C5.37304 30.9216 5.1607 30.8338 4.93943 30.8338H1.66904L7.25987 23.8546C7.37833 23.7069 7.44278 23.5232 7.44278 23.3338C7.43607 19.8468 8.71945 16.4804 11.0466 13.881C13.3736 11.2816 16.5807 9.63251 20.0512 9.25042L19.8676 7.59375C16.0389 8.01414 12.4953 9.81471 9.90028 12.6582C7.30565 15.5012 5.83826 19.1917 5.77351 23.0382L0.365587 29.7931C0.102215 30.1215 -0.0266814 30.5374 0.00460814 30.9571C0.0355277 31.3768 0.224399 31.7689 0.533223 32.0554C0.842046 32.3414 1.24772 32.5007 1.66865 32.5007H4.10458V37.5007C4.10607 38.6052 4.54602 39.6644 5.32794 40.4457C6.11024 41.2265 7.17079 41.6659 8.27684 41.6673H12.4491V49.1674C12.4491 49.3884 12.537 49.6005 12.6934 49.7567C12.8499 49.913 13.0623 50.0008 13.2835 50.0008H31.6414C31.8628 50.0008 32.0751 49.913 32.2316 49.7567C32.388 49.6005 32.4759 49.3884 32.4759 49.1674V34.8759C33.3688 34.0392 34.1624 33.1024 34.84 32.0843L33.4498 31.1676C32.7803 32.171 31.9863 33.0854 31.086 33.8885Z" fill="#C0C0C0"/>
<path id="Vector_4" d="M34.1445 0H35.8134V1.66668H34.1445V0Z" fill="#C0C0C0"/>
<path id="Vector_5" d="M30.2852 0.726847L31.897 0.294922L32.3299 1.90541L30.7181 2.33732L30.2852 0.726847Z" fill="#C0C0C0"/>
<path id="Vector_6" d="M26.7461 2.42611L28.1915 1.59277L29.026 3.0362L27.5806 3.86954L26.7461 2.42611Z" fill="#C0C0C0"/>
<path id="Vector_7" d="M23.7695 4.98289L24.9496 3.80469L26.1294 4.98327L24.9492 6.16146L23.7695 4.98289Z" fill="#C0C0C0"/>
<path id="Vector_8" d="M21.5547 8.22175L22.3892 6.77832L23.8345 7.61165L23 9.05508L21.5547 8.22175Z" fill="#C0C0C0"/>
<path id="Vector_9" d="M20.2539 11.9232L20.686 10.3135L22.298 10.7451L21.8658 12.3548L20.2539 11.9232Z" fill="#C0C0C0"/>
<path id="Vector_10" d="M19.9609 14.167H21.6299V15.8337H19.9609V14.167Z" fill="#C0C0C0"/>
<path id="Vector_11" d="M20.2578 18.0771L21.8697 17.6455L22.3018 19.2553L20.6899 19.6869L20.2578 18.0771Z" fill="#C0C0C0"/>
<path id="Vector_12" d="M21.5547 21.7786L23 20.9453L23.8345 22.3887L22.3892 23.2221L21.5547 21.7786Z" fill="#C0C0C0"/>
<path id="Vector_13" d="M23.7695 25.0175L24.9496 23.8389L26.1298 25.0175L24.9496 26.1961L23.7695 25.0175Z" fill="#C0C0C0"/>
<path id="Vector_14" d="M26.7461 27.5743L27.5805 26.1309L29.0259 26.9642L28.1914 28.4076L26.7461 27.5743Z" fill="#C0C0C0"/>
<path id="Vector_15" d="M30.2852 29.2736L30.7181 27.6631L32.3299 28.0951L31.897 29.7056L30.2852 29.2736Z" fill="#C0C0C0"/>
<path id="Vector_16" d="M34.1445 28.333H35.8134V29.9997H34.1445V28.333Z" fill="#C0C0C0"/>
<path id="Vector_17" d="M37.6289 28.096L39.2408 27.6641L39.6737 29.2746L38.0618 29.7065L37.6289 28.096Z" fill="#C0C0C0"/>
<path id="Vector_18" d="M40.9336 26.9632L42.379 26.1299L43.2134 27.5733L41.7681 28.4067L40.9336 26.9632Z" fill="#C0C0C0"/>
<path id="Vector_19" d="M43.832 25.017L45.0122 23.8389L46.192 25.0174L45.0118 26.1956L43.832 25.017Z" fill="#C0C0C0"/>
<path id="Vector_20" d="M46.125 22.3887L46.9594 20.9453L48.4048 21.7786L47.5703 23.2221L46.125 22.3887Z" fill="#C0C0C0"/>
<path id="Vector_21" d="M47.6602 19.2562L48.0923 17.6465L49.7042 18.078L49.272 19.6877L47.6602 19.2562Z" fill="#C0C0C0"/>
<path id="Vector_22" d="M48.332 14.167H50.0009V15.8337H48.332V14.167Z" fill="#C0C0C0"/>
<path id="Vector_23" d="M47.6602 10.7451L49.272 10.3135L49.7042 11.9232L48.0923 12.3548L47.6602 10.7451Z" fill="#C0C0C0"/>
<path id="Vector_24" d="M46.125 7.61166L47.5703 6.77832L48.4048 8.22176L46.9594 9.05509L46.125 7.61166Z" fill="#C0C0C0"/>
<path id="Vector_25" d="M43.8281 4.98326L45.0082 3.80469L46.1884 4.98326L45.0082 6.16183L43.8281 4.98326Z" fill="#C0C0C0"/>
<path id="Vector_26" d="M40.9336 3.0362L41.7681 1.59277L43.2134 2.42611L42.379 3.86954L40.9336 3.0362Z" fill="#C0C0C0"/>
<path id="Vector_27" d="M37.6289 1.90442L38.0618 0.293945L39.6737 0.726242L39.2408 2.33673L37.6289 1.90442Z" fill="#C0C0C0"/>
</g>
</svg>
