<svg width="14" height="14" viewBox="0 0 14 14" fill="none" xmlns="http://www.w3.org/2000/svg">
<g id="Component 71/&#236;&#182;&#148;&#236;&#178;&#156;&#236;&#157;&#184;" clip-path="url(#clip0_159_9009)">
<path id="Icon" d="M4.2226 12.5559H2.55594C2.26125 12.5559 1.97863 12.4389 1.77026 12.2305C1.56189 12.0221 1.44482 11.7395 1.44482 11.4448V7.55593C1.44482 7.26125 1.56189 6.97863 1.77026 6.77026C1.97863 6.56189 2.26125 6.44482 2.55594 6.44482H4.2226M8.11149 5.33371V3.11149C8.11149 2.66946 7.9359 2.24554 7.62334 1.93298C7.31077 1.62042 6.88685 1.44482 6.44482 1.44482L4.2226 6.44482V12.5559H10.4893C10.7572 12.559 11.0173 12.465 11.2214 12.2915C11.4256 12.1179 11.5602 11.8764 11.6004 11.6115L12.367 6.61149C12.3912 6.45224 12.3805 6.28965 12.3356 6.13496C12.2907 5.98028 12.2127 5.83721 12.107 5.71567C12.0013 5.59412 11.8704 5.49701 11.7235 5.43106C11.5765 5.3651 11.417 5.33189 11.2559 5.33371H8.11149Z" stroke="#017AFB" stroke-width="2" stroke-linecap="round" stroke-linejoin="round"/>
</g>
<defs>
<clipPath id="clip0_159_9009">
<rect width="13.3333" height="13.3333" fill="white" transform="translate(0.333496 0.333496)"/>
</clipPath>
</defs>
</svg>
