<svg width="18" height="22" viewBox="0 0 18 22" fill="none" xmlns="http://www.w3.org/2000/svg">
<g id="Group 84">
<path id="Vector 6" d="M7.70264 9.42108V2.5C7.70264 1.67157 8.37421 1 9.20264 1V1C10.0311 1 10.7026 1.67157 10.7026 2.5V9.42108" stroke="#343434" stroke-width="2" stroke-linecap="round"/>
<path id="Vector 9" d="M4.70264 13.3447V4.31836C4.70264 3.48993 5.37421 2.81836 6.20264 2.81836V2.81836C7.03106 2.81836 7.70264 3.48993 7.70264 4.31836V9.51694" stroke="#343434" stroke-width="2" stroke-linecap="round"/>
<path id="Vector 10" d="M1.70264 13.8228V11.0166C1.70264 10.1882 2.37421 9.5166 3.20264 9.5166V9.5166C4.03106 9.5166 4.70264 10.1882 4.70264 11.0166V13.8228" stroke="#343434" stroke-width="2" stroke-linecap="round"/>
<path id="Vector 7" d="M10.7026 9.51694V4.31836C10.7026 3.48993 11.3742 2.81836 12.2026 2.81836V2.81836C13.0311 2.81836 13.7026 3.48993 13.7026 4.31836V9.51694" stroke="#343434" stroke-width="2" stroke-linecap="round"/>
<path id="Vector 8" d="M13.7026 10.2173V7.28516C13.7026 6.45673 14.3742 5.78516 15.2026 5.78516V5.78516C16.0311 5.78516 16.7026 6.45673 16.7026 7.28516V14.2062" stroke="#343434" stroke-width="2" stroke-linecap="round"/>
<path id="Ellipse 4" d="M16.7026 13.8232C16.7026 17.5228 13.3448 21.0003 9.20264 21.0003C5.0605 21.0003 1.70264 17.5228 1.70264 13.8232" stroke="#343434" stroke-width="2"/>
</g>
</svg>
