<svg width="13" height="16" viewBox="0 0 13 16" fill="none" xmlns="http://www.w3.org/2000/svg">
<path id="Vector" fill-rule="evenodd" clip-rule="evenodd" d="M6.568 0.848255C6.71206 0.584268 6.99358 0.436876 7.28163 0.474586L7.60803 0.517305C9.38248 0.74957 10.5269 2.60283 10.001 4.39261L9.60479 5.7408H10.1214C12.0184 5.7408 13.3961 7.62964 12.897 9.5461L11.9162 13.3119C11.5749 14.6225 10.438 15.5318 9.14059 15.5318H2.15773C0.966054 15.5318 0 14.5201 0 13.2723V8.00026C0 6.75237 0.966054 5.7408 2.15773 5.7408H3.59622C3.78288 5.7408 3.95523 5.63608 4.04784 5.46637L6.568 0.848255ZM5.03471 14.0255H9.14059C9.78928 14.0255 10.3577 13.5709 10.5284 12.9155L11.5092 9.14972C11.7588 8.19149 11.0699 7.24711 10.1214 7.24711H8.63094C8.40272 7.24711 8.18795 7.13369 8.05238 6.94141C7.9168 6.74913 7.87638 6.50089 7.94348 6.27246L8.62605 3.94963C8.87433 3.10466 8.37805 2.23139 7.57501 2.03883L5.29681 6.2137C5.07226 6.62516 4.72322 6.93523 4.31547 7.10386V13.2723C4.31547 13.6883 4.63749 14.0255 5.03471 14.0255ZM2.87698 7.24711V13.2723C2.87698 13.5364 2.92024 13.7899 2.99976 14.0255H2.15773C1.76051 14.0255 1.43849 13.6883 1.43849 13.2723V8.00026C1.43849 7.5843 1.76051 7.24711 2.15773 7.24711H2.87698Z" fill="#017AFB"/>
</svg>
