<svg width="16" height="16" viewBox="0 0 16 16" fill="none" xmlns="http://www.w3.org/2000/svg">
<g id="star-filled">
<path id="Vector" d="M5.40089 4.9528L5.69647 4.92895L5.8173 4.65815L7.45103 0.996565L7.45103 0.996561C7.63149 0.592093 7.86839 0.500029 8.00197 0.5C8.13542 0.499971 8.37229 0.591785 8.55288 0.996489C8.55289 0.996513 8.5529 0.996537 8.55291 0.996561L10.1859 4.65807L10.3067 4.92895L10.6023 4.9528L14.8539 5.29574L14.854 5.29574C15.2946 5.33125 15.4455 5.51586 15.4826 5.61656C15.5176 5.71182 15.5224 5.92884 15.2282 6.2031L15.1528 6.26879L11.9687 8.88858L11.7257 9.08847L11.8008 9.394L12.7507 13.2598C12.8537 13.6791 12.7307 13.8882 12.6374 13.9649C12.5473 14.039 12.3341 14.1132 11.9761 13.9354L11.8912 13.8898L8.25065 11.8026L8.00197 11.6601L7.75329 11.8026L4.10679 13.8932L4.10678 13.8932C3.72732 14.1107 3.48926 14.0508 3.38892 13.9825C3.2932 13.9174 3.1635 13.7359 3.23462 13.3466L3.25487 13.2531L4.20244 9.39391L4.27743 9.08847L4.03458 8.88861L0.84576 6.26434L0.845752 6.26433C0.500074 5.97987 0.482672 5.74199 0.509207 5.6406C0.534261 5.54488 0.65357 5.3635 1.05679 5.30607L1.15695 5.29518L5.40089 4.9528Z" stroke="#163AFA"/>
</g>
</svg>
