<svg width="24" height="24" viewBox="0 0 24 24" fill="none" xmlns="http://www.w3.org/2000/svg">
<g id="pen-line">
<path id="Icon" d="M2.98633 21.0081L1.99638 20.8667C1.94951 21.1948 2.06824 21.5248 2.31341 21.7478C2.55857 21.9709 2.89831 22.0579 3.22053 21.9803L2.98633 21.0081ZM5.74907 15.2454L5.04213 14.5381L5.04196 14.5383L5.74907 15.2454ZM4.16539 16.9867L3.33576 16.4284L4.16539 16.9867ZM3.03378 20.676L2.04383 20.5345H2.04383L3.03378 20.676ZM3.47662 18.3642L2.53219 18.0355L3.47662 18.3642ZM8.39796 18.2533L7.69103 17.5461L7.69086 17.5462L8.39796 18.2533ZM6.92808 19.6084L6.34647 18.7949V18.7949L6.92808 19.6084ZM3.85805 20.7981L3.62385 19.8259H3.62385L3.85805 20.7981ZM5.78102 20.2514L6.17145 21.172L5.78102 20.2514ZM20.2388 3.58969L20.9459 2.88258V2.88258L20.2388 3.58969ZM20.2388 6.41812L20.9458 7.12539L20.9459 7.12523L20.2388 6.41812ZM17.4104 3.58969L18.1173 4.29697L18.1175 4.2968L17.4104 3.58969ZM13.0007 20C12.4484 20 12.0007 20.4477 12.0007 21C12.0007 21.5523 12.4484 22 13.0007 22V20ZM21.0007 22C21.553 22 22.0007 21.5523 22.0007 21C22.0007 20.4477 21.553 20 21.0007 20V22ZM19.5319 5.71084L7.69103 17.5461L9.1049 18.9606L20.9458 7.12539L19.5319 5.71084ZM6.45601 15.9526L18.1173 4.29697L16.7035 2.88242L5.04213 14.5381L6.45601 15.9526ZM3.97628 21.1495L4.02373 20.8174L2.04383 20.5345L1.99638 20.8667L3.97628 21.1495ZM3.62385 19.8259L2.75213 20.0359L3.22053 21.9803L4.09225 21.7703L3.62385 19.8259ZM14.7308 6.26735L17.5553 9.09968L18.9715 7.68742L16.1469 4.85509L14.7308 6.26735ZM5.04196 14.5383C4.22928 15.3509 3.72664 15.8475 3.33576 16.4284L4.99502 17.545C5.25285 17.1619 5.58975 16.8189 6.45618 15.9525L5.04196 14.5383ZM4.02373 20.8174C4.19701 19.6044 4.26924 19.1291 4.42104 18.6929L2.53219 18.0355C2.30205 18.6967 2.20637 19.3968 2.04383 20.5345L4.02373 20.8174ZM3.33576 16.4284C2.99997 16.9273 2.72989 17.4675 2.53219 18.0355L4.42104 18.6929C4.56226 18.2872 4.75517 17.9014 4.99502 17.545L3.33576 16.4284ZM7.69086 17.5462C6.9569 18.2802 6.66677 18.5659 6.34647 18.7949L7.50968 20.4219C7.99508 20.0748 8.41631 19.6492 9.10507 18.9604L7.69086 17.5462ZM4.09225 21.7703C5.03922 21.5422 5.62211 21.405 6.17145 21.172L5.3906 19.3307C5.02811 19.4844 4.63296 19.5828 3.62385 19.8259L4.09225 21.7703ZM6.34647 18.7949C6.04844 19.008 5.72789 19.1877 5.3906 19.3307L6.17145 21.172C6.64366 20.9717 7.09243 20.7202 7.50968 20.4219L6.34647 18.7949ZM19.5317 4.2968C19.9222 4.68732 19.9222 5.32049 19.5317 5.71101L20.9459 7.12523C22.1175 5.95365 22.1175 4.05416 20.9459 2.88258L19.5317 4.2968ZM20.9459 2.88258C19.7744 1.71101 17.8749 1.71102 16.7033 2.88259L18.1175 4.2968C18.508 3.90627 19.1412 3.90628 19.5317 4.2968L20.9459 2.88258ZM13.0007 22H21.0007V20H13.0007V22Z" fill="#424242"/>
</g>
</svg>
