<svg width="16" height="16" viewBox="0 0 16 16" fill="none" xmlns="http://www.w3.org/2000/svg">
<g id="audio">
<g id="&#240;&#159;&#166;&#134; icon &#34;volume high&#34;">
<path id="Vector" d="M4.86035 5.50098H4.99378L5.06804 5.39013L7.00378 2.50098H7.61035V14.001H7.00378L5.06804 11.1118L4.99378 11.001H4.86035H2.11035V5.50098H4.86035ZM10.1723 5.09877L10.171 5.09844C9.98934 5.05303 9.8007 5.02362 9.61035 5.00993V4.00749C9.89571 4.02241 10.1731 4.06289 10.4222 4.12789L10.4238 4.12829C12.2641 4.59544 13.6104 6.26654 13.6104 8.25098C13.6104 10.2247 12.2787 11.8884 10.4537 12.366H10.4404H10.4146L10.3894 12.3712C10.1197 12.4274 9.86806 12.4729 9.61035 12.4917V11.492C9.8007 11.4783 9.98934 11.4489 10.171 11.4035L10.1716 11.4033C11.5865 11.0456 12.6104 9.77662 12.6104 8.25098C12.6104 6.72406 11.5703 5.4564 10.1723 5.09877ZM9.67339 9.46378L9.67337 9.46368L9.66667 9.4656C9.64954 9.47049 9.63068 9.47497 9.61035 9.47898V7.02447C9.63234 7.02862 9.65389 7.03331 9.67472 7.03851C10.2216 7.17524 10.6104 7.67383 10.6104 8.25098C10.6104 8.82555 10.2089 9.32678 9.67339 9.46378Z" fill="#163AFA" stroke="#163AFA" stroke-width="0.5"/>
</g>
</g>
</svg>
