<svg width="25" height="24" viewBox="0 0 25 24" fill="none" xmlns="http://www.w3.org/2000/svg">
<g id="Component 6">
<path id="Icon" d="M5.75 21H19.75C20.8546 21 21.75 20.1046 21.75 19V5C21.75 3.89543 20.8546 3 19.75 3H5.75C4.64543 3 3.75 3.89543 3.75 5V19C3.75 20.1046 4.64543 21 5.75 21ZM5.75 21L16.75 10L21.75 15M10.75 8.5C10.75 9.32843 10.0784 10 9.25 10C8.42157 10 7.75 9.32843 7.75 8.5C7.75 7.67157 8.42157 7 9.25 7C10.0784 7 10.75 7.67157 10.75 8.5Z" stroke="#818181" stroke-width="2" stroke-linecap="round" stroke-linejoin="round"/>
</g>
</svg>
