<svg width="15" height="14" viewBox="0 0 15 14" fill="none" xmlns="http://www.w3.org/2000/svg">
<g id="Component 71/&#236;&#182;&#148;&#236;&#178;&#156;&#236;&#157;&#184;" clip-path="url(#clip0_159_8987)">
<path id="Icon" d="M4.7226 12.5559H3.05594C2.76125 12.5559 2.47863 12.4389 2.27026 12.2305C2.06189 12.0221 1.94482 11.7395 1.94482 11.4448V7.55593C1.94482 7.26125 2.06189 6.97863 2.27026 6.77026C2.47863 6.56189 2.76125 6.44482 3.05594 6.44482H4.7226M8.61149 5.33371V3.11149C8.61149 2.66946 8.4359 2.24554 8.12334 1.93298C7.81077 1.62042 7.38685 1.44482 6.94482 1.44482L4.7226 6.44482V12.5559H10.9893C11.2572 12.559 11.5173 12.465 11.7214 12.2915C11.9256 12.1179 12.0602 11.8764 12.1004 11.6115L12.867 6.61149C12.8912 6.45224 12.8805 6.28965 12.8356 6.13496C12.7907 5.98028 12.7127 5.83721 12.607 5.71567C12.5013 5.59412 12.3704 5.49701 12.2235 5.43106C12.0765 5.3651 11.917 5.33189 11.7559 5.33371H8.61149Z" stroke="#C0C0C0" stroke-width="2" stroke-linecap="round" stroke-linejoin="round"/>
</g>
<defs>
<clipPath id="clip0_159_8987">
<rect width="13.3333" height="13.3333" fill="white" transform="translate(0.833496 0.333496)"/>
</clipPath>
</defs>
</svg>
