<svg width="24" height="24" viewBox="0 0 24 24" fill="none" xmlns="http://www.w3.org/2000/svg">
<g id="Component 6">
<path id="Vector" d="M5.5 21L15.5 21C16.3284 21 17 20.2445 17 19.3125V17.625H18.5C19.3284 17.625 20 16.8695 20 15.9375L20 4.6875C20 3.75551 19.3284 3 18.5 3H8.5C7.67156 3 7 3.75551 7 4.6875V6.375H5.5C4.67156 6.375 4 7.13051 4 8.0625L4 19.3125C4 20.2445 4.67156 21 5.5 21ZM8.6875 4.6875H18.3125C18.3622 4.6875 18.4099 4.70972 18.4451 4.74928C18.4802 4.78884 18.5 4.84249 18.5 4.89844L18.5 15.7266C18.5 15.7825 18.4802 15.8362 18.4451 15.8757C18.4099 15.9153 18.3622 15.9375 18.3125 15.9375H17V8.0625C17 7.13051 16.3284 6.375 15.5 6.375L8.5 6.375V4.89844C8.5 4.84249 8.51975 4.78884 8.55492 4.74928C8.59008 4.70972 8.63777 4.6875 8.6875 4.6875ZM5.6875 8.0625L15.3125 8.0625C15.3622 8.0625 15.4099 8.08472 15.4451 8.12428C15.4802 8.16384 15.5 8.21749 15.5 8.27344L15.5 19.1016C15.5 19.1575 15.4802 19.2112 15.4451 19.2507C15.4099 19.2903 15.3622 19.3125 15.3125 19.3125H5.6875C5.63777 19.3125 5.59008 19.2903 5.55492 19.2507C5.51975 19.2112 5.5 19.1575 5.5 19.1016L5.5 8.27344C5.5 8.21749 5.51975 8.16384 5.55492 8.12428C5.59008 8.08472 5.63777 8.0625 5.6875 8.0625Z" fill="#017AFB"/>
</g>
</svg>
