<svg width="24" height="24" viewBox="0 0 24 24" fill="none" xmlns="http://www.w3.org/2000/svg">
<g id="Component 6">
<path id="Icon" d="M9.94356 13.9336C10.373 14.5077 10.9209 14.9827 11.5501 15.3265C12.1793 15.6703 12.8751 15.8747 13.5902 15.9259C14.3054 15.9771 15.0231 15.8739 15.6949 15.6233C16.3667 15.3728 16.9767 14.9806 17.4836 14.4736L20.4836 11.4736C21.3944 10.5305 21.8983 9.26754 21.8869 7.95655C21.8755 6.64557 21.3497 5.39151 20.4227 4.46447C19.4956 3.53743 18.2415 3.01158 16.9306 3.00019C15.6196 2.9888 14.3566 3.49277 13.4136 4.40356L11.6936 6.11356M13.9436 11.9336C13.5141 11.3594 12.9662 10.8844 12.337 10.5406C11.7078 10.1969 11.0121 9.99244 10.2969 9.94123C9.58177 9.89001 8.86397 9.99319 8.19221 10.2438C7.52045 10.4944 6.91044 10.8865 6.40356 11.3936L3.40356 14.3936C2.49277 15.3366 1.9888 16.5996 2.00019 17.9106C2.01158 19.2216 2.53743 20.4756 3.46447 21.4027C4.39151 22.3297 5.64557 22.8555 6.95655 22.8669C8.26754 22.8783 9.53055 22.3744 10.4736 21.4636L12.1836 19.7536" stroke="#343434" stroke-width="2" stroke-linecap="round" stroke-linejoin="round"/>
</g>
</svg>
