<svg width="39" height="38" viewBox="0 0 39 38" fill="none" xmlns="http://www.w3.org/2000/svg">
<g id="Component 6">
<path id="Icon" d="M19.4997 12.6666V18.9999M19.4997 25.3333H19.5156M16.7922 4.52825L3.38139 26.9166C3.10489 27.3954 2.95859 27.9383 2.95704 28.4912C2.9555 29.0442 3.09875 29.5879 3.37257 30.0683C3.64638 30.5486 4.04121 30.9489 4.51777 31.2293C4.99432 31.5098 5.53599 31.6605 6.08889 31.6666H32.9106C33.4635 31.6605 34.0051 31.5098 34.4817 31.2293C34.9582 30.9489 35.3531 30.5486 35.6269 30.0683C35.9007 29.5879 36.044 29.0442 36.0424 28.4912C36.0409 27.9383 35.8946 27.3954 35.6181 26.9166L22.2072 4.52825C21.925 4.06292 21.5275 3.67819 21.0533 3.41118C20.579 3.14418 20.044 3.00391 19.4997 3.00391C18.9555 3.00391 18.4204 3.14418 17.9462 3.41118C17.4719 3.67819 17.0745 4.06292 16.7922 4.52825Z" stroke="#F75E83" stroke-width="2" stroke-linecap="round" stroke-linejoin="round"/>
</g>
</svg>
