<svg width="40" height="40" viewBox="0 0 40 40" fill="none" xmlns="http://www.w3.org/2000/svg">
<g id="Component 7">
<path id="Icon" d="M22.3067 32.3333C22.0723 32.7374 21.7358 33.0729 21.331 33.306C20.9261 33.5392 20.4672 33.6619 20 33.6619C19.5328 33.6619 19.0739 33.5392 18.669 33.306C18.2642 33.0729 17.9277 32.7374 17.6933 32.3333M28 15C28 12.8783 27.1571 10.8434 25.6569 9.34315C24.1566 7.84285 22.1217 7 20 7C17.8783 7 15.8434 7.84285 14.3431 9.34315C12.8429 10.8434 12 12.8783 12 15C12 24.3333 8 27 8 27H32C32 27 28 24.3333 28 15Z" stroke="#343434" stroke-width="2" stroke-linecap="round" stroke-linejoin="round"/>
</g>
</svg>
