<svg width="20" height="20" viewBox="0 0 20 20" fill="none" xmlns="http://www.w3.org/2000/svg">
<g id="thumb-up">
<path id="Vector" d="M5.76471 8.58824V16.1176C5.76471 16.3673 5.66555 16.6067 5.48904 16.7832C5.31254 16.9597 5.07314 17.0588 4.82353 17.0588H2.94118C2.69156 17.0588 2.45217 16.9597 2.27566 16.7832C2.09916 16.6067 2 16.3673 2 16.1176V9.52941C2 9.2798 2.09916 9.0404 2.27566 8.8639C2.45217 8.68739 2.69156 8.58824 2.94118 8.58824H5.76471ZM5.76471 8.58824C6.76317 8.58824 7.72074 8.1916 8.42676 7.48558C9.13277 6.77956 9.52941 5.82199 9.52941 4.82353V3.88235C9.52941 3.38312 9.72773 2.90434 10.0807 2.55133C10.4338 2.19832 10.9125 2 11.4118 2C11.911 2 12.3898 2.19832 12.7428 2.55133C13.0958 2.90434 13.2941 3.38312 13.2941 3.88235V8.58824H16.1176C16.6169 8.58824 17.0957 8.78655 17.4487 9.13956C17.8017 9.49257 18 9.97136 18 10.4706L17.0588 15.1765C16.9235 15.7539 16.6667 16.2496 16.3272 16.5891C15.9877 16.9286 15.5838 17.0935 15.1765 17.0588H8.58824C7.83939 17.0588 7.12121 16.7613 6.5917 16.2318C6.06218 15.7023 5.76471 14.9841 5.76471 14.2353" stroke="#C0C0C0" stroke-width="2" stroke-linecap="round" stroke-linejoin="round"/>
</g>
</svg>
