<svg width="24" height="25" viewBox="0 0 24 25" fill="none" xmlns="http://www.w3.org/2000/svg">
<g id="ee430cd0-884d-4696-81c0-7517ac4a4949_pixelied-st-bernard 1" clip-path="url(#clip0_231_5040)">
<path id="Vector" d="M21.75 4.7002C21.9489 4.7002 22.1397 4.77921 22.2803 4.91987C22.421 5.06052 22.5 5.25128 22.5 5.4502V18.9502C22.5 19.1491 22.421 19.3399 22.2803 19.4805C22.1397 19.6212 21.9489 19.7002 21.75 19.7002H2.25C2.05109 19.7002 1.86032 19.6212 1.71967 19.4805C1.57902 19.3399 1.5 19.1491 1.5 18.9502V5.4502C1.5 5.25128 1.57902 5.06052 1.71967 4.91987C1.86032 4.77921 2.05109 4.7002 2.25 4.7002H21.75ZM2.25 3.2002C1.65326 3.2002 1.08097 3.43725 0.65901 3.85921C0.237053 4.28116 0 4.85346 0 5.4502L0 18.9502C0 19.5469 0.237053 20.1192 0.65901 20.5412C1.08097 20.9631 1.65326 21.2002 2.25 21.2002H21.75C22.3467 21.2002 22.919 20.9631 23.341 20.5412C23.7629 20.1192 24 19.5469 24 18.9502V5.4502C24 4.85346 23.7629 4.28116 23.341 3.85921C22.919 3.43725 22.3467 3.2002 21.75 3.2002H2.25Z" fill="#424242"/>
<path id="Vector_2" d="M7.5 12.2002C7.5 12.0013 7.57902 11.8105 7.71967 11.6699C7.86032 11.5292 8.05109 11.4502 8.25 11.4502H18.75C18.9489 11.4502 19.1397 11.5292 19.2803 11.6699C19.421 11.8105 19.5 12.0013 19.5 12.2002C19.5 12.3991 19.421 12.5899 19.2803 12.7305C19.1397 12.8712 18.9489 12.9502 18.75 12.9502H8.25C8.05109 12.9502 7.86032 12.8712 7.71967 12.7305C7.57902 12.5899 7.5 12.3991 7.5 12.2002ZM7.5 8.4502C7.5 8.25128 7.57902 8.06052 7.71967 7.91987C7.86032 7.77921 8.05109 7.7002 8.25 7.7002H18.75C18.9489 7.7002 19.1397 7.77921 19.2803 7.91987C19.421 8.06052 19.5 8.25128 19.5 8.4502C19.5 8.64911 19.421 8.83987 19.2803 8.98053C19.1397 9.12118 18.9489 9.2002 18.75 9.2002H8.25C8.05109 9.2002 7.86032 9.12118 7.71967 8.98053C7.57902 8.83987 7.5 8.64911 7.5 8.4502ZM7.5 15.9502C7.5 15.7513 7.57902 15.5605 7.71967 15.4199C7.86032 15.2792 8.05109 15.2002 8.25 15.2002H18.75C18.9489 15.2002 19.1397 15.2792 19.2803 15.4199C19.421 15.5605 19.5 15.7513 19.5 15.9502C19.5 16.1491 19.421 16.3399 19.2803 16.4805C19.1397 16.6212 18.9489 16.7002 18.75 16.7002H8.25C8.05109 16.7002 7.86032 16.6212 7.71967 16.4805C7.57902 16.3399 7.5 16.1491 7.5 15.9502ZM6 8.4502C6 8.64911 5.92098 8.83987 5.78033 8.98053C5.63968 9.12118 5.44891 9.2002 5.25 9.2002C5.05109 9.2002 4.86032 9.12118 4.71967 8.98053C4.57902 8.83987 4.5 8.64911 4.5 8.4502C4.5 8.25128 4.57902 8.06052 4.71967 7.91987C4.86032 7.77921 5.05109 7.7002 5.25 7.7002C5.44891 7.7002 5.63968 7.77921 5.78033 7.91987C5.92098 8.06052 6 8.25128 6 8.4502ZM6 12.2002C6 12.3991 5.92098 12.5899 5.78033 12.7305C5.63968 12.8712 5.44891 12.9502 5.25 12.9502C5.05109 12.9502 4.86032 12.8712 4.71967 12.7305C4.57902 12.5899 4.5 12.3991 4.5 12.2002C4.5 12.0013 4.57902 11.8105 4.71967 11.6699C4.86032 11.5292 5.05109 11.4502 5.25 11.4502C5.44891 11.4502 5.63968 11.5292 5.78033 11.6699C5.92098 11.8105 6 12.0013 6 12.2002ZM6 15.9502C6 16.1491 5.92098 16.3399 5.78033 16.4805C5.63968 16.6212 5.44891 16.7002 5.25 16.7002C5.05109 16.7002 4.86032 16.6212 4.71967 16.4805C4.57902 16.3399 4.5 16.1491 4.5 15.9502C4.5 15.7513 4.57902 15.5605 4.71967 15.4199C4.86032 15.2792 5.05109 15.2002 5.25 15.2002C5.44891 15.2002 5.63968 15.2792 5.78033 15.4199C5.92098 15.5605 6 15.7513 6 15.9502Z" fill="#424242"/>
</g>
<defs>
<clipPath id="clip0_231_5040">
<rect width="24" height="24" fill="white" transform="translate(0 0.200195)"/>
</clipPath>
</defs>
</svg>
