<svg width="10" height="12" viewBox="0 0 10 12" fill="none" xmlns="http://www.w3.org/2000/svg">
<g id="Group 7973">
<path id="Vector" d="M9.07701 6.01408H8.57163V3.74559C8.57163 1.68044 6.97992 0 5.02335 0C3.06699 0 1.47524 1.68044 1.47524 3.74559V6.01408H0.922989C0.413275 6.01408 0 6.45025 0 6.98835V11.0257C0 11.5638 0.413234 12 0.922989 12H9.07701C9.58677 12 10 11.5638 10 11.0257V6.98835C10 6.45025 9.58677 6.01408 9.07701 6.01408ZM3.21275 3.74554C3.21275 2.69166 4.02499 1.83405 5.02335 1.83405C6.02188 1.83405 6.83416 2.69162 6.83416 3.74554V6.01403H3.21275V3.74554Z" fill="#C0C0C0"/>
</g>
</svg>
