<svg width="22" height="22" viewBox="0 0 22 22" fill="none" xmlns="http://www.w3.org/2000/svg">
<g id="Component 6" clip-path="url(#clip0_234_3630)">
<path id="Icon" d="M1.5874 3.92232V9.23035M1.5874 9.23035H6.89544M1.5874 9.23035L5.69228 5.37318C6.91394 4.15359 8.49886 3.36406 10.2083 3.12356C11.9176 2.88306 13.6589 3.20461 15.1696 4.03977C16.6804 4.87493 17.8788 6.17845 18.5843 7.75392C19.2898 9.3294 19.4642 11.0915 19.0811 12.7747C18.6981 14.4579 17.7784 15.971 16.4606 17.086C15.1429 18.2011 13.4984 18.8577 11.775 18.9569C10.0517 19.056 8.34274 18.5925 6.90575 17.636C5.46876 16.6795 4.38155 15.2818 3.80793 13.6537" stroke="#343434" stroke-width="2" stroke-linecap="round" stroke-linejoin="round"/>
</g>
<defs>
<clipPath id="clip0_234_3630">
<rect width="21.2321" height="21.2321" fill="white" transform="translate(0.702637 0.383789)"/>
</clipPath>
</defs>
</svg>
