<svg xmlns="http://www.w3.org/2000/svg" width="1073.751" height="1350.18" viewBox="0 0 1073.751 1350.18">
  <g id="그룹_1110" data-name="그룹 1110" transform="translate(-13586.199 -9465.011)">
    <g id="그룹_1109" data-name="그룹 1109" transform="translate(13586.199 9465.011)">
      <path id="패스_919" data-name="패스 919" d="M0,1261.932H408.172c270.456,0,467.909-116.144,467.909-358.395,0-165.923-101.217-260.5-240.6-290.363v-8.3C745,568.372,809.7,457.2,809.7,341.058c0-220.678-180.855-301.981-431.4-301.981H0ZM192.472,550.124V190.067H361.713c172.561,0,258.84,48.118,258.84,175.879,0,114.486-77.983,184.177-263.817,184.177Zm0,560.818V694.473H386.6c194.13,0,300.323,61.4,300.323,199.108,0,149.335-109.508,217.361-300.323,217.361Z" transform="translate(0 88.247)" fill="#3c3d45"/>
      <path id="패스_920" data-name="패스 920" d="M199.323,257.647A127.323,127.323,0,1,0,72,130.323,127.324,127.324,0,0,0,199.323,257.647Z" transform="translate(747.104 -3)" fill="#017afb"/>
    </g>
  </g>
</svg>
