<?xml version="1.0" standalone="no"?>
<!DOCTYPE svg PUBLIC "-//W3C//DTD SVG 20010904//EN"
 "http://www.w3.org/TR/2001/REC-SVG-20010904/DTD/svg10.dtd">
<svg version="1.0" xmlns="http://www.w3.org/2000/svg"
 width="1350.000000pt" height="1350.000000pt" viewBox="0 0 1350.000000 1350.000000"
 preserveAspectRatio="xMidYMid meet">
<metadata>
Created by potrace 1.14, written by Peter Selinger 2001-2017
</metadata>
<g transform="translate(0.000000,1350.000000) scale(0.100000,-0.100000)"
fill="#000000" stroke="none">
<path d="M10705 13493 c-335 -42 -632 -204 -843 -461 -280 -340 -363 -806
-218 -1220 66 -188 160 -338 305 -483 208 -207 468 -335 746 -365 570 -64
1107 249 1324 771 76 181 100 315 96 525 -3 152 -18 240 -61 368 -92 277 -290
527 -534 679 -144 89 -310 150 -485 180 -39 6 -291 11 -330 6z"/>
<path d="M1380 6113 l0 -6114 2278 4 c1252 3 2300 7 2327 10 28 3 88 8 135 11
47 4 103 8 125 11 53 6 138 15 200 21 28 2 64 6 80 9 89 12 253 37 270 40 11
3 37 7 57 10 21 2 58 9 83 15 25 6 62 13 83 16 143 22 608 151 772 214 58 22
108 40 112 40 19 0 318 134 442 197 933 478 1524 1235 1722 2203 25 125 29
148 39 230 4 30 9 63 11 73 1 9 6 56 10 105 4 48 8 103 10 122 10 121 4 499
-11 625 -21 182 -23 195 -51 330 -14 66 -27 133 -30 149 -12 63 -104 328 -152
437 -69 155 -127 260 -246 440 -57 87 -181 234 -290 344 -257 258 -567 462
-948 624 -149 63 -454 161 -578 186 -8 2 -33 8 -55 14 -38 10 -40 13 -40 47 1
43 -3 41 135 95 417 162 809 480 1088 881 223 321 383 703 461 1103 27 140 30
157 51 365 7 78 5 477 -4 565 -7 73 -23 194 -30 230 -2 11 -7 40 -11 65 -13
81 -56 253 -87 350 -176 549 -507 983 -1003 1316 -118 79 -201 127 -358 206
-240 121 -499 216 -812 298 -179 47 -387 93 -475 105 -14 2 -54 8 -90 15 -72
13 -91 16 -169 25 -30 4 -64 9 -75 11 -11 2 -50 6 -86 9 -36 4 -72 8 -80 10
-8 2 -51 7 -95 10 -44 4 -94 8 -112 10 -17 2 -82 7 -145 10 -62 4 -142 9 -178
12 -36 2 -1013 6 -2172 7 l-2108 2 0 -6113z m4079 4593 c24 -3 80 -8 125 -11
82 -5 104 -8 251 -26 162 -21 200 -27 355 -60 746 -161 1188 -531 1335 -1119
13 -52 26 -115 30 -140 4 -25 9 -54 11 -65 17 -91 23 -390 11 -530 -40 -454
-221 -819 -541 -1089 -167 -141 -412 -272 -661 -354 -92 -31 -260 -78 -305
-86 -14 -2 -59 -11 -100 -19 -41 -9 -95 -19 -120 -22 -24 -4 -47 -8 -50 -10
-3 -1 -36 -6 -75 -10 -38 -4 -72 -8 -75 -10 -3 -1 -43 -6 -90 -10 -47 -3 -101
-8 -120 -10 -128 -13 -443 -17 -1210 -17 -481 0 -886 1 -900 1 l-25 1 0 1793
c0 1115 3 1795 9 1799 11 7 2078 2 2145 -6z m166 -5040 c77 -4 156 -9 175 -11
19 -2 73 -6 120 -9 47 -4 96 -9 110 -11 14 -2 50 -7 80 -10 30 -3 66 -7 80 -9
14 -3 46 -7 73 -11 39 -5 222 -39 327 -61 60 -12 223 -57 310 -85 408 -132
726 -326 941 -575 80 -93 90 -105 134 -174 139 -218 226 -469 262 -760 15
-128 7 -576 -12 -650 -2 -8 -7 -33 -10 -55 -7 -53 -13 -82 -20 -105 -3 -10 -7
-27 -9 -37 -52 -260 -208 -568 -396 -777 -83 -92 -158 -161 -275 -254 -190
-151 -559 -320 -876 -403 -128 -33 -283 -67 -343 -75 -21 -2 -42 -6 -45 -8 -3
-3 -33 -7 -65 -11 -33 -3 -62 -8 -65 -10 -4 -2 -40 -6 -81 -10 -41 -4 -88 -9
-105 -11 -40 -5 -124 -13 -210 -21 -38 -3 -599 -8 -1245 -10 l-1175 -4 0 2078
c0 1997 1 2078 18 2083 28 8 2145 4 2302 -4z"/>
</g>
</svg>
