<svg width="129" height="120" viewBox="0 0 129 120" fill="none" xmlns="http://www.w3.org/2000/svg">
<g id="Group">
<g id="Vector" style="mix-blend-mode:hard-light" opacity="0.4">
<path d="M59.6415 44.1579L35.1487 58.299C31.9493 60.1463 29.9814 63.5567 29.9814 67.247V95.5248C29.9814 99.2151 31.9493 102.63 35.1487 104.473L59.6415 118.614C62.8409 120.461 66.7767 120.461 69.9761 118.614L94.4689 104.473C97.6683 102.626 99.6362 99.2151 99.6362 95.5248V67.247C99.6362 63.5567 97.6683 60.142 94.4689 58.299L69.9761 44.1579C66.7767 42.3106 62.8409 42.3106 59.6415 44.1579Z" fill="#101B2F"/>
</g>
<path id="Vector_2" d="M59.6415 39.8523L35.1487 53.9933C31.9493 55.8406 29.9814 59.251 29.9814 62.9413V91.2192C29.9814 94.9095 31.9493 98.3242 35.1487 100.167L59.6415 114.308C62.8409 116.156 66.7767 116.156 69.9761 114.308L94.4689 100.167C97.6683 98.3199 99.6362 94.9095 99.6362 91.2192V62.9413C99.6362 59.251 97.6683 55.8363 94.4689 53.9933L69.9761 39.8523C66.7767 38.005 62.8409 38.005 59.6415 39.8523Z" fill="url(#paint0_linear_159_7054)"/>
<g id="Group_2" style="mix-blend-mode:hard-light" opacity="0.3">
<path id="Vector_3" d="M64.8088 39.3261C66.4709 39.3261 68.1072 39.7653 69.5455 40.5963L94.0383 54.7374C96.9621 56.4254 98.7749 59.5688 98.7749 62.9404V91.2183C98.7749 94.5899 96.9621 97.7377 94.0383 99.4213L69.5455 113.562C68.1072 114.393 66.4709 114.833 64.8088 114.833C63.1467 114.833 61.5104 114.393 60.0721 113.562L35.5793 99.4213C32.6555 97.7334 30.8427 94.5899 30.8427 91.2183V62.9404C30.8427 59.5688 32.6555 56.4211 35.5793 54.7374L60.0721 40.5963C61.5104 39.7653 63.1467 39.3261 64.8088 39.3261ZM64.8088 38.4648C63.0261 38.4648 61.2391 38.9256 59.6415 39.8514L35.1487 53.9925C31.9493 55.8398 29.9814 59.2502 29.9814 62.9404V91.2183C29.9814 94.9086 31.9493 98.3233 35.1487 100.166L59.6415 114.307C61.2391 115.229 63.0261 115.694 64.8088 115.694C66.5915 115.694 68.3785 115.233 69.9761 114.307L94.4689 100.166C97.6683 98.319 99.6362 94.9086 99.6362 91.2183V62.9404C99.6362 59.2502 97.6683 55.8355 94.4689 53.9925L69.9761 39.8514C68.3785 38.9299 66.5915 38.4648 64.8088 38.4648Z" fill="url(#paint1_linear_159_7054)"/>
</g>
<g id="Vector_4" style="mix-blend-mode:hard-light" opacity="0.4">
<path d="M128.745 49.9629L123.574 61.2017L128.745 72.4405H103.964V49.9629H128.745Z" fill="#101B2F"/>
</g>
<g id="Vector_5" style="mix-blend-mode:hard-light" opacity="0.4">
<path d="M0.873047 49.9629L6.04892 61.2017L0.873047 72.4405H25.6544V49.9629H0.873047Z" fill="#101B2F"/>
</g>
<path id="Vector_6" d="M128.745 46.3594L123.574 57.5982L128.745 68.837H103.964V46.3594H128.745Z" fill="url(#paint2_linear_159_7054)"/>
<path id="Vector_7" d="M115.332 38.6943V61.1762L103.964 68.8367V46.3591L115.332 38.6943Z" fill="url(#paint3_linear_159_7054)"/>
<path id="Vector_8" d="M0.873047 46.3594L6.04892 57.5982L0.873047 68.837H25.6544V46.3594H0.873047Z" fill="url(#paint4_linear_159_7054)"/>
<path id="Vector_9" d="M14.2861 38.6943V61.1762L25.6541 68.8367V46.3591L14.2861 38.6943Z" fill="url(#paint5_linear_159_7054)"/>
<g id="Vector_10" style="mix-blend-mode:hard-light" opacity="0.4">
<path d="M59.5857 5.70503L23.2125 26.7057C19.9787 28.5702 17.9893 32.0193 17.9893 35.7527V77.7539C17.9893 81.4873 19.9787 84.9321 23.2125 86.8009L59.5857 107.802C62.8196 109.666 66.7984 109.666 70.0322 107.802L106.405 86.8009C109.639 84.9364 111.629 81.4873 111.629 77.7539V35.7527C111.629 32.0193 109.639 28.5745 106.405 26.7057L70.0322 5.70503C66.7984 3.84051 62.8196 3.84051 59.5857 5.70503Z" fill="#101B2F"/>
</g>
<path id="Vector_11" d="M59.5857 1.39937L23.2125 22.4C19.9787 24.2645 17.9893 27.7137 17.9893 31.447V73.4482C17.9893 77.1816 19.9787 80.6264 23.2125 82.4953L59.5857 103.496C62.8196 105.36 66.7984 105.36 70.0322 103.496L106.405 82.4953C109.639 80.6307 111.629 77.1816 111.629 73.4482V31.447C111.629 27.7137 109.639 24.2688 106.405 22.4L70.0322 1.39937C66.7984 -0.465154 62.8196 -0.465154 59.5857 1.39937Z" fill="url(#paint6_linear_159_7054)"/>
<g id="Group_3" style="mix-blend-mode:hard-light" opacity="0.3">
<path id="Vector_12" d="M64.809 0.861211C66.4883 0.861211 68.1462 1.30473 69.6016 2.14441L105.975 23.145C108.929 24.8502 110.767 28.0324 110.767 31.4471V73.4483C110.767 76.863 108.933 80.0409 105.975 81.7504L69.6016 102.751C68.1462 103.591 66.4883 104.034 64.809 104.034C63.1296 104.034 61.4718 103.591 60.0163 102.751L23.6431 81.7504C20.6892 80.0452 18.8505 76.863 18.8505 73.4483V31.4471C18.8505 28.0324 20.6848 24.8545 23.6431 23.145L60.0163 2.14441C61.4718 1.30473 63.1296 0.861211 64.809 0.861211ZM64.809 0C63.0047 0 61.2005 0.465054 59.5857 1.39947L23.2125 22.4001C19.9787 24.2646 17.9893 27.7138 17.9893 31.4471V73.4483C17.9893 77.1817 19.9787 80.6265 23.2125 82.4954L59.5857 103.496C61.2005 104.43 63.0047 104.895 64.809 104.895C66.6132 104.895 68.4174 104.43 70.0322 103.496L106.405 82.4954C109.639 80.6308 111.629 77.1817 111.629 73.4483V31.4471C111.629 27.7138 109.639 24.2689 106.405 22.4001L70.0322 1.39947C68.4174 0.465054 66.6132 0 64.809 0Z" fill="url(#paint7_linear_159_7054)"/>
</g>
<g id="Vector_13" style="mix-blend-mode:hard-light" opacity="0.4">
<path d="M111.629 59.9658H17.9893V64.7757H111.629V59.9658Z" fill="#101B2F"/>
</g>
<g id="Vector_14" style="mix-blend-mode:hard-light" opacity="0.4">
<path d="M61.4031 23.4638L37.6854 37.157C35.5797 38.3756 34.2793 40.6234 34.2793 43.0563V70.4471C34.2793 72.88 35.5754 75.1278 37.6854 76.3464L61.4031 90.0396C63.5088 91.2583 66.1053 91.2583 68.2153 90.0396L91.933 76.3464C94.0387 75.1278 95.3391 72.88 95.3391 70.4471V43.0563C95.3391 40.6234 94.043 38.3756 91.933 37.157L68.2153 23.4638C66.1096 22.2452 63.5131 22.2452 61.4031 23.4638Z" fill="#101B2F"/>
</g>
<path id="Vector_15" d="M115.332 38.6943H14.2861V61.1762H115.332V38.6943Z" fill="url(#paint8_linear_159_7054)"/>
<path id="Vector_16" d="M61.4031 19.1571L37.6854 32.8504C35.5797 34.069 34.2793 36.3167 34.2793 38.7497V66.1405C34.2793 68.5734 35.5754 70.8211 37.6854 72.0398L61.4031 85.733C63.5088 86.9516 66.1053 86.9516 68.2153 85.733L91.933 72.0398C94.0387 70.8211 95.3391 68.5734 95.3391 66.1405V38.7497C95.3391 36.3167 94.043 34.069 91.933 32.8504L68.2153 19.1571C66.1096 17.9385 63.5131 17.9385 61.4031 19.1571Z" fill="#E0E8F3"/>
<g id="Group_4" style="mix-blend-mode:hard-light" opacity="0.3">
<path id="Vector_17" d="M64.8092 19.1054C65.8513 19.1054 66.8804 19.3809 67.7847 19.902L91.5024 33.5952C93.3368 34.6545 94.4779 36.631 94.4779 38.7496V66.1404C94.4779 68.2589 93.3368 70.2354 91.5024 71.2947L67.7847 84.988C66.8804 85.509 65.8513 85.7846 64.8092 85.7846C63.7672 85.7846 62.738 85.509 61.8337 84.988L38.116 71.2947C36.2816 70.2354 35.1405 68.2589 35.1405 66.1404V38.7496C35.1405 36.631 36.2816 34.6545 38.116 33.5952L61.8337 19.902C62.738 19.3809 63.7672 19.1054 64.8092 19.1054ZM64.8092 18.2441C63.6337 18.2441 62.4581 18.5499 61.4031 19.157L37.6854 32.8503C35.5797 34.0689 34.2793 36.3166 34.2793 38.7496V66.1404C34.2793 68.5733 35.5754 70.821 37.6854 72.0397L61.4031 85.7329C62.4581 86.3401 63.6337 86.6458 64.8092 86.6458C65.9848 86.6458 67.1603 86.3401 68.2153 85.7329L91.933 72.0397C94.0387 70.821 95.3391 68.5733 95.3391 66.1404V38.7496C95.3391 36.3166 94.043 34.0689 91.933 32.8503L68.2153 19.157C67.1603 18.5499 65.9848 18.2441 64.8092 18.2441Z" fill="url(#paint9_linear_159_7054)"/>
</g>
<path id="Vector_18" d="M55.8566 60.1812L64.9294 51.8404C67.2848 49.5884 68.5594 48.1932 68.5594 46.1866C68.5594 43.9345 66.8672 42.5394 64.5462 42.5566C62.1736 42.5394 60.6191 44.0379 60.6363 46.4665H55.6456C55.6283 41.5274 59.2928 38.3711 64.6151 38.3711C69.9374 38.3711 73.619 41.4585 73.619 45.8421C73.619 48.7228 72.2239 51.0783 67.0222 55.7891L63.1812 59.5224V59.6602H73.9678V63.9878H55.8867L55.8523 60.1856L55.8566 60.1812Z" fill="#6A85A3"/>
</g>
<defs>
<linearGradient id="paint0_linear_159_7054" x1="64.8088" y1="38.4657" x2="64.8088" y2="115.695" gradientUnits="userSpaceOnUse">
<stop stop-color="#FF4FDF"/>
<stop offset="1" stop-color="#B3005F"/>
</linearGradient>
<linearGradient id="paint1_linear_159_7054" x1="64.8088" y1="-0.00112549" x2="64.8088" y2="-0.00112549" gradientUnits="userSpaceOnUse">
<stop stop-color="white"/>
<stop offset="1"/>
</linearGradient>
<linearGradient id="paint2_linear_159_7054" x1="116.352" y1="46.3594" x2="116.352" y2="68.837" gradientUnits="userSpaceOnUse">
<stop stop-color="#FFD846"/>
<stop offset="1" stop-color="#FF9900"/>
</linearGradient>
<linearGradient id="paint3_linear_159_7054" x1="109.648" y1="38.6943" x2="109.648" y2="68.8367" gradientUnits="userSpaceOnUse">
<stop stop-color="#F8AC3F"/>
<stop offset="1" stop-color="#FA4143"/>
</linearGradient>
<linearGradient id="paint4_linear_159_7054" x1="13.2659" y1="46.3594" x2="13.2659" y2="68.837" gradientUnits="userSpaceOnUse">
<stop stop-color="#FFD846"/>
<stop offset="1" stop-color="#FF9900"/>
</linearGradient>
<linearGradient id="paint5_linear_159_7054" x1="19.9701" y1="38.6943" x2="19.9701" y2="68.8367" gradientUnits="userSpaceOnUse">
<stop stop-color="#F8AC3F"/>
<stop offset="1" stop-color="#FA4143"/>
</linearGradient>
<linearGradient id="paint6_linear_159_7054" x1="64.809" y1="-9.99507e-05" x2="64.809" y2="104.895" gradientUnits="userSpaceOnUse">
<stop stop-color="#A033FF"/>
<stop offset="1" stop-color="#3900D6"/>
</linearGradient>
<linearGradient id="paint7_linear_159_7054" x1="64.809" y1="0" x2="64.809" y2="104.895" gradientUnits="userSpaceOnUse">
<stop stop-color="white"/>
<stop offset="1"/>
</linearGradient>
<linearGradient id="paint8_linear_159_7054" x1="64.809" y1="38.6943" x2="64.809" y2="61.1762" gradientUnits="userSpaceOnUse">
<stop stop-color="#FFD846"/>
<stop offset="1" stop-color="#FF9900"/>
</linearGradient>
<linearGradient id="paint9_linear_159_7054" x1="64.8092" y1="18.2441" x2="64.8092" y2="86.6458" gradientUnits="userSpaceOnUse">
<stop stop-color="white"/>
<stop offset="1"/>
</linearGradient>
</defs>
</svg>
