<svg width="128" height="120" viewBox="0 0 128 120" fill="none" xmlns="http://www.w3.org/2000/svg">
<g id="Group">
<g id="Vector" style="mix-blend-mode:hard-light" opacity="0.4">
<path d="M58.7676 44.1579L34.2747 58.299C31.0753 60.1463 29.1074 63.5567 29.1074 67.247V95.525C29.1074 99.2152 31.0753 102.63 34.2747 104.473L58.7676 118.614C61.967 120.461 65.9027 120.461 69.1021 118.614L93.595 104.473C96.7944 102.626 98.7623 99.2152 98.7623 95.525V67.247C98.7623 63.5567 96.7944 60.142 93.595 58.299L69.1021 44.1579C65.9027 42.3106 61.967 42.3106 58.7676 44.1579Z" fill="#101B2F"/>
</g>
<path id="Vector_2" d="M58.7676 39.8513L34.2747 53.9924C31.0753 55.8397 29.1074 59.2501 29.1074 62.9404V91.2183C29.1074 94.9086 31.0753 98.3233 34.2747 100.166L58.7676 114.307C61.967 116.155 65.9027 116.155 69.1021 114.307L93.595 100.166C96.7944 98.319 98.7623 94.9086 98.7623 91.2183V62.9404C98.7623 59.2501 96.7944 55.8354 93.595 53.9924L69.1021 39.8513C65.9027 38.004 61.967 38.004 58.7676 39.8513Z" fill="url(#paint0_linear_159_7032)"/>
<g id="Group_2" style="mix-blend-mode:hard-light" opacity="0.3">
<path id="Vector_3" d="M63.9349 39.328C65.597 39.328 67.2333 39.7672 68.6715 40.5983L93.1644 54.7394C96.0882 56.4274 97.9011 59.5708 97.9011 62.9425V91.2204C97.9011 94.592 96.0882 97.7397 93.1644 99.4234L68.6715 113.565C67.2333 114.396 65.597 114.835 63.9349 114.835C62.2727 114.835 60.6364 114.396 59.1982 113.565L34.7053 99.4234C31.7815 97.7354 29.9686 94.592 29.9686 91.2204V62.9425C29.9686 59.5708 31.7815 56.4231 34.7053 54.7394L59.1982 40.5983C60.6364 39.7672 62.2727 39.328 63.9349 39.328ZM63.9349 38.4668C62.1521 38.4668 60.3651 38.9275 58.7676 39.8533L34.2747 53.9945C31.0753 55.8418 29.1074 59.2522 29.1074 62.9425V91.2204C29.1074 94.9107 31.0753 98.3254 34.2747 100.168L58.7676 114.309C60.3651 115.231 62.1521 115.696 63.9349 115.696C65.7176 115.696 67.5046 115.235 69.1021 114.309L93.595 100.168C96.7944 98.3211 98.7623 94.9107 98.7623 91.2204V62.9425C98.7623 59.2522 96.7944 55.8375 93.595 53.9945L69.1021 39.8533C67.5046 38.9319 65.7176 38.4668 63.9349 38.4668Z" fill="url(#paint1_linear_159_7032)"/>
</g>
<g id="Vector_4" style="mix-blend-mode:hard-light" opacity="0.4">
<path d="M58.7118 5.70601L22.3385 26.7067C19.1046 28.5712 17.1152 32.0204 17.1152 35.7537V77.7551C17.1152 81.4884 19.1046 84.9333 22.3385 86.8021L58.7118 107.803C61.9457 109.667 65.9245 109.667 69.1583 107.803L105.532 86.8021C108.765 84.9376 110.755 81.4884 110.755 77.7551V35.7537C110.755 32.0204 108.765 28.5755 105.532 26.7067L69.1583 5.70601C65.9245 3.84149 61.9457 3.84149 58.7118 5.70601Z" fill="#101B2F"/>
</g>
<g id="Vector_5" style="mix-blend-mode:hard-light" opacity="0.4">
<path d="M127.872 49.9658L122.696 61.2046L127.872 72.4435H103.091V49.9658H127.872Z" fill="#101B2F"/>
</g>
<g id="Vector_6" style="mix-blend-mode:hard-light" opacity="0.4">
<path d="M0 49.9658L5.17158 61.2046L0 72.4435H24.7814V49.9658H0Z" fill="#101B2F"/>
</g>
<path id="Vector_7" d="M127.872 46.3594L122.696 57.5982L127.872 68.837H103.091V46.3594H127.872Z" fill="url(#paint2_linear_159_7032)"/>
<path id="Vector_8" d="M114.459 38.6953V61.1773L103.091 68.8378V46.3601L114.459 38.6953Z" fill="url(#paint3_linear_159_7032)"/>
<path id="Vector_9" d="M0 46.3594L5.17158 57.5982L0 68.837H24.7814V46.3594H0Z" fill="url(#paint4_linear_159_7032)"/>
<path id="Vector_10" d="M13.4131 38.6953V61.1773L24.7811 68.8378V46.3601L13.4131 38.6953Z" fill="url(#paint5_linear_159_7032)"/>
<path id="Vector_11" d="M58.7118 1.39839L22.3385 22.3991C19.1046 24.2636 17.1152 27.7127 17.1152 31.4461V73.4474C17.1152 77.1808 19.1046 80.6256 22.3385 82.4945L58.7118 103.495C61.9457 105.36 65.9245 105.36 69.1583 103.495L105.532 82.4945C108.765 80.6299 110.755 77.1808 110.755 73.4474V31.4461C110.755 27.7127 108.765 24.2679 105.532 22.3991L69.1583 1.39839C65.9245 -0.466131 61.9457 -0.466131 58.7118 1.39839Z" fill="url(#paint6_linear_159_7032)"/>
<g id="Group_3" style="mix-blend-mode:hard-light" opacity="0.3">
<path id="Vector_12" d="M63.9351 0.861212C65.6144 0.861212 67.2723 1.30474 68.7277 2.14442L105.101 23.1451C108.055 24.8503 109.894 28.0325 109.894 31.4472V73.4485C109.894 76.8632 108.059 80.0411 105.101 81.7506L68.7277 102.751C67.2723 103.591 65.6144 104.034 63.9351 104.034C62.2557 104.034 60.5979 103.591 59.1424 102.751L22.7691 81.7506C19.8151 80.0454 17.9764 76.8632 17.9764 73.4485V31.4472C17.9764 28.0325 19.8108 24.8546 22.7691 23.1451L59.1424 2.14442C60.5979 1.30474 62.2557 0.861212 63.9351 0.861212ZM63.9351 0C62.1308 0 60.3266 0.465055 58.7118 1.39947L22.3385 22.4001C19.1046 24.2647 17.1152 27.7138 17.1152 31.4472V73.4485C17.1152 77.1819 19.1046 80.6267 22.3385 82.4955L58.7118 103.496C60.3266 104.431 62.1308 104.896 63.9351 104.896C65.7393 104.896 67.5435 104.431 69.1583 103.496L105.532 82.4955C108.765 80.631 110.755 77.1819 110.755 73.4485V31.4472C110.755 27.7138 108.765 24.269 105.532 22.4001L69.1583 1.39947C67.5435 0.465055 65.7393 0 63.9351 0Z" fill="url(#paint7_linear_159_7032)"/>
</g>
<g id="Vector_13" style="mix-blend-mode:hard-light" opacity="0.4">
<path d="M110.755 59.9668H17.1152V64.7767H110.755V59.9668Z" fill="#101B2F"/>
</g>
<g id="Vector_14" style="mix-blend-mode:hard-light" opacity="0.4">
<path d="M60.5301 23.4647L36.8123 37.158C34.7067 38.3766 33.4062 40.6244 33.4062 43.0573V70.4482C33.4062 72.8811 34.7024 75.1289 36.8123 76.3475L60.5301 90.0408C62.6358 91.2594 65.2324 91.2594 67.3423 90.0408L91.0601 76.3475C93.1658 75.1289 94.4662 72.8811 94.4662 70.4482V43.0573C94.4662 40.6244 93.1701 38.3766 91.0601 37.158L67.3423 23.4647C65.2367 22.2461 62.6401 22.2461 60.5301 23.4647Z" fill="#101B2F"/>
</g>
<path id="Vector_15" d="M114.459 38.6953H13.4131V61.1773H114.459V38.6953Z" fill="url(#paint8_linear_159_7032)"/>
<path id="Vector_16" d="M60.5301 19.1591L36.8123 32.8524C34.7067 34.071 33.4062 36.3187 33.4062 38.7517V66.1425C33.4062 68.5755 34.7024 70.8232 36.8123 72.0418L60.5301 85.7351C62.6358 86.9537 65.2324 86.9537 67.3423 85.7351L91.0601 72.0418C93.1658 70.8232 94.4662 68.5755 94.4662 66.1425V38.7517C94.4662 36.3187 93.1701 34.071 91.0601 32.8524L67.3423 19.1591C65.2367 17.9405 62.6401 17.9405 60.5301 19.1591Z" fill="#E0E8F3"/>
<g id="Group_4" style="mix-blend-mode:hard-light" opacity="0.3">
<path id="Vector_17" d="M63.9362 19.1083C64.9783 19.1083 66.0075 19.3839 66.9117 19.9049L90.6295 33.5982C92.4639 34.6575 93.605 36.634 93.605 38.7525V66.1434C93.605 68.262 92.4639 70.2385 90.6295 71.2978L66.9117 84.991C66.0075 85.5121 64.9783 85.7877 63.9362 85.7877C62.8942 85.7877 61.865 85.5121 60.9608 84.991L37.243 71.2978C35.4086 70.2385 34.2675 68.262 34.2675 66.1434V38.7525C34.2675 36.634 35.4086 34.6575 37.243 33.5982L60.9608 19.9049C61.865 19.3839 62.8942 19.1083 63.9362 19.1083ZM63.9362 18.2471C62.7607 18.2471 61.5851 18.5528 60.5301 19.16L36.8123 32.8532C34.7067 34.0719 33.4062 36.3196 33.4062 38.7525V66.1434C33.4062 68.5763 34.7024 70.8241 36.8123 72.0427L60.5301 85.736C61.5851 86.3432 62.7607 86.6489 63.9362 86.6489C65.1118 86.6489 66.2873 86.3432 67.3423 85.736L91.0601 72.0427C93.1658 70.8241 94.4662 68.5763 94.4662 66.1434V38.7525C94.4662 36.3196 93.1701 34.0719 91.0601 32.8532L67.3423 19.16C66.2873 18.5528 65.1118 18.2471 63.9362 18.2471Z" fill="url(#paint9_linear_159_7032)"/>
</g>
<path id="Vector_18" d="M68.4358 63.9897H63.1652V43.7124H63.0274L57.2314 47.3424V42.7005L63.4795 38.7217H68.4358V63.9897Z" fill="#6A85A3"/>
</g>
<defs>
<linearGradient id="paint0_linear_159_7032" x1="63.9349" y1="38.4647" x2="63.9349" y2="115.694" gradientUnits="userSpaceOnUse">
<stop stop-color="#A033FF"/>
<stop offset="1" stop-color="#3900D6"/>
</linearGradient>
<linearGradient id="paint1_linear_159_7032" x1="63.9349" y1="38.4668" x2="63.9349" y2="115.696" gradientUnits="userSpaceOnUse">
<stop stop-color="white"/>
<stop offset="1"/>
</linearGradient>
<linearGradient id="paint2_linear_159_7032" x1="115.479" y1="46.3594" x2="115.479" y2="68.837" gradientUnits="userSpaceOnUse">
<stop stop-color="#FFD846"/>
<stop offset="1" stop-color="#FF9900"/>
</linearGradient>
<linearGradient id="paint3_linear_159_7032" x1="108.775" y1="38.6953" x2="108.775" y2="68.8378" gradientUnits="userSpaceOnUse">
<stop stop-color="#F8AC3F"/>
<stop offset="1" stop-color="#FA4143"/>
</linearGradient>
<linearGradient id="paint4_linear_159_7032" x1="12.3885" y1="46.3594" x2="12.3885" y2="68.837" gradientUnits="userSpaceOnUse">
<stop stop-color="#FFD846"/>
<stop offset="1" stop-color="#FF9900"/>
</linearGradient>
<linearGradient id="paint5_linear_159_7032" x1="19.0971" y1="38.6953" x2="19.0971" y2="68.8378" gradientUnits="userSpaceOnUse">
<stop stop-color="#F8AC3F"/>
<stop offset="1" stop-color="#FA4143"/>
</linearGradient>
<linearGradient id="paint6_linear_159_7032" x1="63.9351" y1="-0.00107652" x2="63.9351" y2="104.895" gradientUnits="userSpaceOnUse">
<stop stop-color="#76F8FF"/>
<stop offset="1" stop-color="#2071FF"/>
</linearGradient>
<linearGradient id="paint7_linear_159_7032" x1="-0.00136346" y1="-1.08206e-07" x2="63.9351" y2="104.896" gradientUnits="userSpaceOnUse">
<stop stop-color="white"/>
<stop offset="1"/>
</linearGradient>
<linearGradient id="paint8_linear_159_7032" x1="63.9361" y1="38.6953" x2="63.9361" y2="61.1773" gradientUnits="userSpaceOnUse">
<stop stop-color="#FFD846"/>
<stop offset="1" stop-color="#FF9900"/>
</linearGradient>
<linearGradient id="paint9_linear_159_7032" x1="-0.000188401" y1="18.2471" x2="0.430418" y2="86.6489" gradientUnits="userSpaceOnUse">
<stop stop-color="white"/>
<stop offset="1"/>
</linearGradient>
</defs>
</svg>
