<svg width="160" height="148" viewBox="0 0 160 148" fill="none" xmlns="http://www.w3.org/2000/svg">
<g id="Group">
<g id="Vector" style="mix-blend-mode:hard-light" opacity="0.4">
<path d="M73.5327 54.3024L42.8861 71.6924C38.8828 73.9641 36.4205 78.158 36.4205 82.6962V117.471C36.4205 122.009 38.8828 126.208 42.8861 128.475L73.5327 145.865C77.536 148.136 82.4606 148.136 86.4638 145.865L117.111 128.475C121.114 126.203 123.576 122.009 123.576 117.471V82.6962C123.576 78.158 121.114 73.9588 117.111 71.6924L86.4638 54.3024C82.4606 52.0307 77.536 52.0307 73.5327 54.3024Z" fill="#101B2F"/>
</g>
<path id="Vector_2" d="M73.5327 49.0065L42.8861 66.3965C38.8828 68.6682 36.4205 72.8621 36.4205 77.4003V112.175C36.4205 116.713 38.8828 120.912 42.8861 123.179L73.5327 140.569C77.536 142.84 82.4606 142.84 86.4638 140.569L117.111 123.179C121.114 120.907 123.576 116.713 123.576 112.175V77.4003C123.576 72.8621 121.114 68.6629 117.111 66.3965L86.4638 49.0065C82.4606 46.7348 77.536 46.7348 73.5327 49.0065Z" fill="url(#paint0_linear_234_3514)"/>
<g id="Group_2" style="mix-blend-mode:hard-light" opacity="0.3">
<path id="Vector_3" d="M79.9983 48.3628C82.078 48.3628 84.1255 48.9029 85.925 49.9249L116.572 67.3149C120.23 69.3907 122.498 73.2563 122.498 77.4026V112.177C122.498 116.323 120.23 120.194 116.572 122.265L85.925 139.655C84.1255 140.677 82.078 141.217 79.9983 141.217C77.9185 141.217 75.8711 140.677 74.0715 139.655L43.4249 122.265C39.7665 120.189 37.4981 116.323 37.4981 112.177V77.4026C37.4981 73.2563 39.7665 69.3854 43.4249 67.3149L74.0715 49.9249C75.8711 48.9029 77.9185 48.3628 79.9983 48.3628ZM79.9983 47.3037C77.7677 47.3037 75.5317 47.8703 73.5327 49.0088L42.8861 66.3988C38.8828 68.6705 36.4205 72.8644 36.4205 77.4026V112.177C36.4205 116.715 38.8828 120.915 42.8861 123.181L73.5327 140.571C75.5317 141.704 77.7677 142.276 79.9983 142.276C82.2289 142.276 84.4649 141.709 86.4638 140.571L117.111 123.181C121.114 120.909 123.576 116.715 123.576 112.177V77.4026C123.576 72.8644 121.114 68.6652 117.111 66.3988L86.4638 49.0088C84.4649 47.8756 82.2289 47.3037 79.9983 47.3037Z" fill="url(#paint1_linear_234_3514)"/>
</g>
<g id="Vector_4" style="mix-blend-mode:hard-light" opacity="0.4">
<path d="M73.4629 7.01654L27.9509 32.842C23.9045 35.1349 21.4153 39.3765 21.4153 43.9676V95.6186C21.4153 100.21 23.9045 104.446 27.9509 106.744L73.4629 132.57C77.5093 134.863 82.4877 134.863 86.5341 132.57L132.046 106.744C136.092 104.451 138.582 100.21 138.582 95.6186V43.9676C138.582 39.3765 136.092 35.1402 132.046 32.842L86.5341 7.01654C82.4877 4.72365 77.5093 4.72365 73.4629 7.01654Z" fill="#101B2F"/>
</g>
<g id="Vector_5" style="mix-blend-mode:hard-light" opacity="0.4">
<path d="M160 61.4453L153.524 75.2662L160 89.0871H128.992V61.4453H160Z" fill="#101B2F"/>
</g>
<g id="Vector_6" style="mix-blend-mode:hard-light" opacity="0.4">
<path d="M0 61.4453L6.47093 75.2662L0 89.0871H31.0077V61.4453H0Z" fill="#101B2F"/>
</g>
<path id="Vector_7" d="M160 57.0107L153.524 70.8316L160 84.6525H128.992V57.0107H160Z" fill="url(#paint2_linear_234_3514)"/>
<path id="Vector_8" d="M143.216 47.585V75.2321L128.992 84.6525V57.0107L143.216 47.585Z" fill="url(#paint3_linear_234_3514)"/>
<path id="Vector_9" d="M0 57.0107L6.47093 70.8316L0 84.6525H31.0077V57.0107H0Z" fill="url(#paint4_linear_234_3514)"/>
<path id="Vector_10" d="M16.7827 47.585V75.2321L31.0069 84.6525V57.0107L16.7827 47.585Z" fill="url(#paint5_linear_234_3514)"/>
<path id="Vector_11" d="M73.4629 1.71967L27.9509 27.5452C23.9045 29.8381 21.4153 34.0796 21.4153 38.6707V90.3217C21.4153 94.9128 23.9045 99.1491 27.9509 101.447L73.4629 127.273C77.5093 129.566 82.4877 129.566 86.5341 127.273L132.046 101.447C136.092 99.1544 138.582 94.9128 138.582 90.3217V38.6707C138.582 34.0796 136.092 29.8434 132.046 27.5452L86.5341 1.71967C82.4877 -0.573223 77.5093 -0.573223 73.4629 1.71967Z" fill="url(#paint6_linear_234_3514)"/>
<g id="Group_3" style="mix-blend-mode:hard-light" opacity="0.3">
<path id="Vector_12" d="M79.9985 1.05907C82.0998 1.05907 84.1741 1.6045 85.9953 2.63709L131.507 28.4626C135.203 30.5596 137.504 34.4728 137.504 38.6721V90.3231C137.504 94.5223 135.209 98.4303 131.507 100.533L85.9953 126.358C84.1741 127.391 82.0998 127.936 79.9985 127.936C77.8972 127.936 75.8228 127.391 74.0017 126.358L28.4897 100.533C24.7935 98.4356 22.4929 94.5223 22.4929 90.3231V38.6721C22.4929 34.4728 24.7881 30.5648 28.4897 28.4626L74.0017 2.63709C75.8228 1.6045 77.8972 1.05907 79.9985 1.05907ZM79.9985 0C77.7409 0 75.4834 0.571899 73.4629 1.72099L27.9509 27.5465C23.9045 29.8394 21.4153 34.081 21.4153 38.6721V90.3231C21.4153 94.9141 23.9045 99.1504 27.9509 101.449L73.4629 127.274C75.4834 128.423 77.7409 128.995 79.9985 128.995C82.256 128.995 84.5136 128.423 86.5341 127.274L132.046 101.449C136.092 99.1557 138.582 94.9141 138.582 90.3231V38.6721C138.582 34.081 136.092 29.8447 132.046 27.5465L86.5341 1.72099C84.5136 0.571899 82.256 0 79.9985 0Z" fill="url(#paint7_linear_234_3514)"/>
</g>
<g id="Vector_13" style="mix-blend-mode:hard-light" opacity="0.4">
<path d="M138.582 73.7441H21.4153V79.6591H138.582V73.7441Z" fill="#101B2F"/>
</g>
<g id="Vector_14" style="mix-blend-mode:hard-light" opacity="0.4">
<path d="M75.738 28.8554L46.0612 45.6946C43.4265 47.1932 41.7993 49.9574 41.7993 52.9493V86.6331C41.7993 89.625 43.4211 92.3892 46.0612 93.8878L75.738 110.727C78.3727 112.226 81.6217 112.226 84.2618 110.727L113.939 93.8878C116.573 92.3892 118.2 89.625 118.2 86.6331V52.9493C118.2 49.9574 116.579 47.1932 113.939 45.6946L84.2618 28.8554C81.6271 27.3568 78.3781 27.3568 75.738 28.8554Z" fill="#101B2F"/>
</g>
<path id="Vector_15" d="M143.216 47.585H16.7827V75.2321H143.216V47.585Z" fill="url(#paint8_linear_234_3514)"/>
<path id="Vector_16" d="M75.738 23.5605L46.0612 40.3997C43.4265 41.8983 41.7993 44.6625 41.7993 47.6544V81.3382C41.7993 84.3301 43.4211 87.0943 46.0612 88.5928L75.738 105.432C78.3727 106.931 81.6217 106.931 84.2618 105.432L113.939 88.5928C116.573 87.0943 118.2 84.3301 118.2 81.3382V47.6544C118.2 44.6625 116.579 41.8983 113.939 40.3997L84.2618 23.5605C81.6271 22.0619 78.3781 22.0619 75.738 23.5605Z" fill="#E0E8F3"/>
<g id="Group_4" style="mix-blend-mode:hard-light" opacity="0.3">
<path id="Vector_17" d="M79.9999 23.4985C81.3038 23.4985 82.5915 23.8374 83.723 24.4782L113.4 41.3174C115.695 42.6201 117.123 45.0507 117.123 47.656V81.3398C117.123 83.9451 115.695 86.3757 113.4 87.6784L83.723 104.518C82.5915 105.158 81.3038 105.497 79.9999 105.497C78.696 105.497 77.4083 105.158 76.2768 104.518L46.6 87.6784C44.3047 86.3757 42.8769 83.9451 42.8769 81.3398V47.656C42.8769 45.0507 44.3047 42.6201 46.6 41.3174L76.2768 24.4782C77.4083 23.8374 78.696 23.4985 79.9999 23.4985ZM79.9999 22.4395C78.529 22.4395 77.0581 22.8154 75.738 23.5621L46.0612 40.4013C43.4265 41.8999 41.7993 44.6641 41.7993 47.656V81.3398C41.7993 84.3317 43.4211 87.0959 46.0612 88.5945L75.738 105.434C77.0581 106.18 78.529 106.556 79.9999 106.556C81.4708 106.556 82.9417 106.18 84.2618 105.434L113.939 88.5945C116.573 87.0959 118.2 84.3317 118.2 81.3398V47.656C118.2 44.6641 116.579 41.8999 113.939 40.4013L84.2618 23.5621C82.9417 22.8154 81.4708 22.4395 79.9999 22.4395Z" fill="url(#paint9_linear_234_3514)"/>
</g>
<path id="Vector_18" d="M85.63 78.6914H79.0352V53.7555H78.8628L71.6106 58.2195V52.5111L79.4285 47.6182H85.63V78.6914Z" fill="#6A85A3"/>
</g>
<defs>
<linearGradient id="paint0_linear_234_3514" x1="79.9983" y1="47.3014" x2="79.9983" y2="142.274" gradientUnits="userSpaceOnUse">
<stop stop-color="#A033FF"/>
<stop offset="1" stop-color="#3900D6"/>
</linearGradient>
<linearGradient id="paint1_linear_234_3514" x1="79.9983" y1="47.3037" x2="79.9983" y2="142.276" gradientUnits="userSpaceOnUse">
<stop stop-color="white"/>
<stop offset="1"/>
</linearGradient>
<linearGradient id="paint2_linear_234_3514" x1="144.493" y1="57.0107" x2="144.493" y2="84.6525" gradientUnits="userSpaceOnUse">
<stop stop-color="#FFD846"/>
<stop offset="1" stop-color="#FF9900"/>
</linearGradient>
<linearGradient id="paint3_linear_234_3514" x1="136.104" y1="47.585" x2="136.104" y2="84.6525" gradientUnits="userSpaceOnUse">
<stop stop-color="#F8AC3F"/>
<stop offset="1" stop-color="#FA4143"/>
</linearGradient>
<linearGradient id="paint4_linear_234_3514" x1="15.5011" y1="57.0107" x2="15.5011" y2="84.6525" gradientUnits="userSpaceOnUse">
<stop stop-color="#FFD846"/>
<stop offset="1" stop-color="#FF9900"/>
</linearGradient>
<linearGradient id="paint5_linear_234_3514" x1="23.8948" y1="47.585" x2="23.8948" y2="84.6525" gradientUnits="userSpaceOnUse">
<stop stop-color="#F8AC3F"/>
<stop offset="1" stop-color="#FA4143"/>
</linearGradient>
<linearGradient id="paint6_linear_234_3514" x1="79.9985" y1="-0.00132384" x2="79.9985" y2="128.994" gradientUnits="userSpaceOnUse">
<stop stop-color="#76F8FF"/>
<stop offset="1" stop-color="#2071FF"/>
</linearGradient>
<linearGradient id="paint7_linear_234_3514" x1="-0.00182439" y1="-1.33066e-07" x2="77.9925" y2="130.197" gradientUnits="userSpaceOnUse">
<stop stop-color="white"/>
<stop offset="1"/>
</linearGradient>
<linearGradient id="paint8_linear_234_3514" x1="79.9996" y1="47.585" x2="79.9996" y2="75.2321" gradientUnits="userSpaceOnUse">
<stop stop-color="#FFD846"/>
<stop offset="1" stop-color="#FF9900"/>
</linearGradient>
<linearGradient id="paint9_linear_234_3514" x1="-0.000417363" y1="22.4395" x2="0.52002" y2="106.556" gradientUnits="userSpaceOnUse">
<stop stop-color="white"/>
<stop offset="1"/>
</linearGradient>
</defs>
</svg>
