<svg width="48" height="49" viewBox="0 0 48 49" fill="none" xmlns="http://www.w3.org/2000/svg">
<g id="Component 6">
<path id="Icon" d="M10 42.2542H38C40.2091 42.2542 42 40.4878 42 38.3088V10.6906C42 8.51156 40.2091 6.74512 38 6.74512H10C7.79086 6.74512 6 8.51156 6 10.6906V38.3088C6 40.4878 7.79086 42.2542 10 42.2542ZM10 42.2542L32 20.5542L42 30.4178M20 17.5951C20 19.2294 18.6569 20.5542 17 20.5542C15.3431 20.5542 14 19.2294 14 17.5951C14 15.9609 15.3431 14.636 17 14.636C18.6569 14.636 20 15.9609 20 17.5951Z" stroke="black" stroke-width="2" stroke-linecap="round" stroke-linejoin="round"/>
</g>
</svg>
